<svg width="46" height="46" viewBox="0 0 46 46" fill="none" xmlns="http://www.w3.org/2000/svg">
    <g clip-path="url(#clip0_5_99)">
        <path fill-rule="evenodd" clip-rule="evenodd" d="M45.0417 23C45.0417 35.1732 35.1732 45.0416 23 45.0416C10.8267 45.0416 0.958328 35.1732 0.958328 23C0.958328 10.8267 10.8267 0.958313 23 0.958313C35.1732 0.958313 45.0417 10.8267 45.0417 23ZM11.9902 16.3875C11.9902 15.1752 12.971 14.1833 14.1833 14.1833H31.8167C33.029 14.1833 34.0208 15.1752 34.0208 16.3875V29.6125C34.0208 30.8248 33.029 31.8166 31.8167 31.8166H14.1833C12.971 31.8166 11.9792 30.8248 11.9792 29.6125L11.9902 16.3875ZM23 24.1021L14.1833 18.5916V29.6125H31.8167V18.5916L23 24.1021ZM23 21.8979L14.1833 16.3875H31.8167L23 21.8979Z"/>
    </g>
    <defs>
        <clipPath id="clip0_5_99">
            <rect width="46" height="46" fill="white"/>
        </clipPath>
    </defs>
</svg>
